<?xml version="1.0" encoding="UTF-8" standalone="no"?>
<!-- Created with Inkscape (http://www.inkscape.org/) -->

<svg
  xmlns:inkscape="http://www.inkscape.org/namespaces/inkscape"
  xmlns:sodipodi="http://sodipodi.sourceforge.net/DTD/sodipodi-0.dtd"
  height="1066.6667"
  id="svg2"
  version="1.1"
  viewBox="0 0 1066.6667 1066.6667"
  width="1066.6667"
  xmlns="http://www.w3.org/2000/svg"
  inkscape:export-filename="face2.svg"
  inkscape:export-xdpi="96"
  inkscape:export-ydpi="96"
  inkscape:version="1.2.1 (9c6d41e410, 2022-07-14)"
  sodipodi:docname="face.svg"
>
  <defs
    id="defs6"/>
  <g
    style="display:inline"
    id="layer1"
    inkscape:groupmode="layer"
    inkscape:label="Image 1"/>
  <g
    id="g8"
    inkscape:groupmode="layer"
    inkscape:label="Image">
    <path
      style="display:inline;fill:#000000;stroke-width:1.33333"
      d="M 500.00002,1056.4172 C 386.12853,1047.8723 281.8514,1005.1065 195.33334,931.46831 181.2649,919.49422 155.88431,894.31979 142.77147,879.33336 86.600504,815.13657 47.381205,739.17202 27.326765,655.72647 8.7969267,578.62472 8.8172519,491.57375 27.38305,414.66668 36.488453,376.9484 48.145595,344.1536 64.587546,310.00001 91.084863,254.95919 122.83784,210.30065 166.56925,166.56925 236.21482,96.923664 319.00776,50.475652 414.66668,27.38305 474.47923,12.943965 545.47691,9.4861912 606.00002,18.064614 c 56.17852,7.962628 105.19422,22.706297 154.66667,46.522932 84.38664,40.624754 154.74526,101.183474 206.51783,177.753024 16.75987,24.78716 25.95995,40.79124 38.89468,67.65944 32.4507,67.40738 48.9502,136.39515 50.8673,212.68677 2.1115,84.02987 -14.7656,162.98855 -50.8673,237.97991 -27.61574,57.36396 -61.59224,104.60851 -106.92363,148.67799 -81.9219,79.64144 -184.34049,129.12782 -297.82222,143.90112 -27.97635,3.642 -75.31756,5.1237 -101.33333,3.1714 z m 64.66666,-27.1022 c 54.14615,-3.4066 100.61585,-13.4309 149.24882,-32.1954 168.07357,-64.84936 288.295,-217.49023 312.1322,-396.30325 11.7839,-88.39635 -0.7219,-178.5991 -36.33306,-262.0641 C 957.98904,264.39406 904.64585,195.56031 839.24128,144.58227 661.30181,5.8915817 409.44735,5.765378 231.82282,144.2779 80.382341,262.37197 11.015215,454.6952 52.064002,642.66669 76.37758,754.00394 140.45404,855.13896 231.82282,926.3888 c 94.31135,73.54447 213.58962,110.4292 332.84386,102.9262 z m -49.2036,-292.16419 c -39.57693,-1.84309 -74.66679,-7.48651 -103.73645,-16.68365 -26.33711,-8.3326 -43.09767,-15.8996 -74.07027,-33.44094 l -17.677,-10.01136 2.92928,-4.84075 c 1.6111,-2.66242 3.83414,-6.34076 4.9401,-8.17409 1.10596,-1.83333 2.15443,-3.54532 2.32992,-3.80443 0.17551,-0.2591 10.18596,5.028 22.24547,11.74911 44.36447,24.7256 77.66466,35.7137 127.57589,42.09634 23.56472,3.01345 74.7568,4.03266 102.89089,2.0485 60.77059,-4.28584 106.73658,-17.09329 169.70875,-47.28579 11.62852,-5.57538 21.65634,-10.13706 22.28402,-10.13706 1.29837,0 9.96609,16.9881 9.04806,17.73357 -1.41813,1.15156 -41.86821,19.88054 -55.26505,25.58851 -64.93684,27.66761 -133.02068,38.89616 -213.20361,35.16204 z m 23.2036,-121.29606 c -12.36661,-1.87336 -35.11004,-9.77778 -45.69812,-15.88226 -11.69216,-6.74103 -26.41524,-17.85274 -37.53123,-28.32533 l -8.82457,-8.31381 6.86101,-7.07635 6.86103,-7.07634 6.16593,5.45422 c 23.62618,20.89907 37.19871,29.60156 56.83262,36.44021 10.9302,3.80708 13.48584,4.1832 28.66667,4.21898 14.95609,0.0352 17.32793,-0.28897 23.10956,-3.15905 8.7066,-4.32207 19.50119,-14.4379 29.23291,-27.39472 4.43678,-5.90716 8.52677,-11.26228 9.08886,-11.90027 1.43202,-1.6254 17.39695,9.80279 16.29798,11.66659 -2.93426,4.97638 -17.59786,23.27079 -23.46195,29.27128 -18.13351,18.55533 -41.17462,26.08004 -67.6007,22.07685 z m -145.787,-149.16458 c -35.28747,-6.39836 -66.5981,-27.8649 -80.44258,-55.15134 -7.836,-15.44415 -10.37846,-37.10944 -6.36113,-54.20549 3.75547,-15.98158 10.45699,-27.3045 24.5348,-41.45409 11.21385,-11.27101 14.38277,-13.60529 26.72257,-19.68427 21.36294,-10.52404 31.00983,-12.68322 56.66667,-12.68322 17.80746,0 23.09627,0.48226 32,2.91794 14.343,3.92364 32.97462,13.07183 42.69881,20.96528 9.75552,7.91888 9.31646,7.47975 17.26893,17.2717 21.17095,26.06796 23.74297,63.23508 6.40091,92.49593 -5.52566,9.3233 -18.53912,23.19986 -27.60892,29.44004 -9.49239,6.53094 -23.53287,13.04839 -36.19829,16.80288 -9.80086,2.90534 -15.18078,3.60779 -30.56144,3.99043 -10.26666,0.25541 -21.57081,-0.0621 -25.12033,-0.70579 z m 37.35719,-13.45578 c 50.08352,-6.87782 85.39927,-45.53092 79.37341,-86.87427 -3.62428,-24.86614 -20.07136,-45.7668 -45.73937,-58.12484 -19.2114,-9.24944 -28.65375,-11.40971 -49.8709,-11.40971 -21.21714,0 -30.65949,2.16027 -49.87089,11.40971 -49.90072,24.02502 -61.7692,79.25673 -25.00602,116.36911 22.96638,23.18452 55.75117,33.48624 91.11377,28.63 z m -15.27011,-60.12887 c -11.66451,-2.6104 -20.47071,-15.91891 -18.29669,-27.65115 2.3523,-12.69432 11.26778,-18.78769 27.48912,-18.78769 18.16276,0 29.18397,8.37298 29.16537,22.15737 -0.0107,7.98919 -2.76613,12.49158 -11.40196,18.63143 -9.72799,6.91635 -15.70203,8.16853 -26.95584,5.65004 z m 230.36659,74.05841 c -28.58509,-5.43948 -49.3131,-16.10436 -65.69984,-33.80354 -15.84204,-17.11087 -23.18375,-36.79575 -21.89049,-58.69371 0.93126,-15.76851 4.4969,-26.47838 13.09574,-39.33471 14.09912,-21.07992 35.1041,-35.27051 63.37967,-42.81815 12.85851,-3.43233 45.37134,-3.43233 58.22984,0 35.68873,9.52644 62.91602,32.37272 72.83898,61.11882 4.05001,11.73258 5.05636,31.02271 2.21025,42.36737 -8.11592,32.3503 -35.47626,57.9818 -72.80258,68.20235 -9.80918,2.68591 -40.98171,4.55619 -49.36157,2.96157 z m 33.51079,-13.82949 c 40.16542,-5.81048 70.52106,-31.74493 76.0822,-65.00109 5.60114,-33.49527 -18.13028,-66.8047 -56.76968,-79.68194 -56.03165,-18.67352 -117.9011,10.87093 -126.37683,60.3486 -8.50387,49.64191 46.63675,93.0761 107.06431,84.33443 z m -4.80441,-55.46024 c -10.38952,-3.80343 -16.82858,-12.60396 -16.90996,-23.11157 -0.10894,-14.06802 9.347,-22.79805 24.62372,-22.73334 18.95636,0.0803 33.32048,17.50825 26.96569,32.7174 -2.54698,6.09582 -6.6023,10.75216 -11.65294,13.38 -4.58154,2.38378 -16.17243,2.25668 -23.02651,-0.25249 z m 19.56924,-160.39055 c -46.41508,-20.29688 -85.24458,-37.48398 -86.28778,-38.19354 -1.56849,-1.06686 -0.62493,-4.1733 5.45268,-17.95173 4.04216,-9.16388 7.87195,-17.18417 8.51062,-17.82284 0.9938,-0.9938 172.3234,72.37829 174.96852,74.93045 1.59245,1.5365 -14.02424,36.17827 -16.25299,36.05327 -1.1,-0.0617 -39.97597,-16.71872 -86.39105,-37.01561 z m -394.87517,5.24708 c -3.20314,-10.31346 -5.48568,-19.08994 -5.07234,-19.50328 0.5674,-0.5674 180.43043,-57.89411 181.64326,-57.89411 0.86888,0 11.64542,37.49432 10.97051,38.16924 -0.67097,0.67096 -168.92122,54.46803 -178.99639,57.23308 -2.46852,0.67747 -3.26188,-0.99419 -8.54504,-18.00493 z"
      id="path170"/>
    <path
      style="display:inline;fill:#f2f2f2;fill-opacity:0.00784314;stroke:#000000;stroke-width:1.03862;stroke-opacity:0.00784314"
      d="M 493.89935,1028.1182 C 396.42916,1019.47 303.97958,982.80418 228.66815,922.92669 140.20123,852.58973 78.168133,754.51191 53.454674,645.90433 40.584869,589.34575 37.717712,527.93707 45.289177,471.01594 55.278316,395.91911 82.190063,324.00287 123.41045,262.25253 237.41907,91.461558 440.32643,9.3065874 641.35026,52.544378 809.34687,88.678415 949.34479,214.28008 1003.7043,377.63684 c 38.557,115.86847 33.9865,239.2866 -12.95133,349.7271 -56.04971,131.87989 -164.20519,231.89604 -299.54877,277.00596 -39.38159,13.1259 -73.97654,20.1196 -117.88381,23.8313 -14.57598,1.2322 -65.19382,1.1793 -79.42104,-0.083 z m 81.49829,-290.73604 c 49.73169,-2.98375 88.60197,-10.79847 132.32621,-26.60368 21.27135,-7.68906 76.95651,-32.93549 76.95651,-34.89039 0,-2.27195 -8.65861,-17.40054 -9.95891,-17.40054 -0.78015,0 -11.59467,4.73477 -24.03227,10.5217 -73.57434,34.23246 -120.11402,45.67361 -192.42883,47.306 -65.75424,1.48431 -116.90249,-5.74077 -158.59972,-22.40342 -15.80781,-6.31696 -28.78591,-12.5926 -49.74597,-24.05497 -10.61661,-5.80589 -19.67625,-10.15489 -20.13252,-9.66445 -0.45627,0.49044 -2.98235,4.38213 -5.61352,8.64821 -3.77602,6.12233 -4.51122,8.01298 -3.48957,8.9738 2.2475,2.1137 39.25684,22.33659 50.44435,27.56413 54.18664,25.31964 126.59626,36.66404 204.27424,32.00361 z m 1.68023,-124.22364 c 16.29868,-5.72535 28.46622,-15.83522 45.36533,-37.69356 4.74317,-6.13511 7.46158,-10.57643 7.26957,-11.87698 -0.34501,-2.33698 -12.3726,-11.04007 -15.25726,-11.04007 -1.00903,0 -3.39744,2.17623 -5.30759,4.83608 -12.13492,16.89757 -25.89753,30.25068 -35.96642,34.89627 -4.61471,2.12914 -6.49934,2.32162 -21.67221,2.21345 -15.09935,-0.10765 -17.36771,-0.37232 -24.82201,-2.89624 -21.36031,-7.23229 -36.48828,-16.72684 -59.74731,-37.49832 l -6.67251,-5.9589 -7.34685,7.53832 -7.34684,7.53831 8.30693,7.76721 c 22.6632,21.19069 40.15628,32.07517 64.39263,40.06609 15.79285,5.20704 19.88054,5.84851 35.31321,5.54162 13.10237,-0.26055 15.42612,-0.60017 23.49133,-3.43328 z M 426.02903,467.42363 c 12.63962,-0.81609 16.3305,-1.48533 25.9656,-4.70817 12.53431,-4.19259 27.40333,-11.34316 34.6525,-16.66454 6.01304,-4.41399 19.21889,-18.17743 23.72483,-24.72661 5.00398,-7.27302 9.22671,-17.20303 11.68099,-27.46851 3.09219,-12.93363 2.39332,-31.46799 -1.63345,-43.32023 -9.13879,-26.89875 -28.87923,-46.65044 -59.14548,-59.17919 -16.51336,-6.83573 -22.24972,-7.81206 -45.89923,-7.81206 -29.45371,0 -37.23774,1.72842 -60.59555,13.455 -9.43427,4.7364 -12.26519,6.84313 -22.15487,16.4873 -17.02706,16.60438 -23.65597,27.73823 -27.3401,45.92021 -2.08567,10.2932 -1.55365,27.78052 1.15203,37.86681 5.16779,19.26457 19.43459,37.88577 38.92539,50.80586 15.74159,10.4348 35.89697,17.99785 51.35706,19.2711 13.52777,1.1141 13.19867,1.11328 29.31028,0.073 z m 249.21489,-0.13523 c 7.27888,-0.62203 16.65782,-2.00656 20.8421,-3.07672 30.37344,-7.76822 57.43264,-30.42476 68.31096,-57.19645 4.20881,-10.35798 5.02024,-16.13433 4.45111,-31.68666 -0.43332,-11.84106 -0.99786,-15.75838 -3.16998,-21.99625 -9.45162,-27.14308 -33.93967,-48.68293 -68.24216,-60.02627 -8.68646,-2.87248 -9.22882,-2.91953 -33.75528,-2.92795 -24.28218,-0.008 -25.16609,0.0654 -34.17113,2.85129 -28.63656,8.85926 -48.44345,23.75723 -62.38015,46.91994 -8.69559,14.45202 -12.0829,36.41203 -8.41142,54.53155 6.20365,30.61627 31.38872,56.27739 66.66001,67.92003 17.46864,5.76619 26.88522,6.65137 49.86594,4.68749 z m 107.2808,-195.05887 c 4.23274,-5.94432 15.53015,-32.78122 14.31241,-33.99896 -1.16609,-1.16608 -33.35532,-15.41074 -81.22526,-35.94452 -65.17018,-27.9547 -93.04107,-39.41202 -94.50578,-38.84996 -1.73802,0.66694 -14.23911,29.40829 -14.4059,33.12068 l -0.14383,3.2015 38.41408,16.97881 c 32.95934,14.56782 59.38255,26.0828 122.05331,53.18964 6.5693,2.84139 12.26289,5.19823 12.65242,5.23739 0.38953,0.0392 1.67139,-1.28139 2.84855,-2.93458 z M 330.80171,253.99706 c 38.95087,-12.17501 155.25414,-49.54859 155.76323,-50.05388 1.33044,-1.32047 -9.84893,-38.80198 -11.57322,-38.80198 -1.53519,0 -131.00575,40.97165 -176.12769,55.73654 -3.62833,1.18727 -5.45278,2.3527 -5.45278,3.48315 0,1.95857 5.31287,21.1139 7.76815,28.00772 2.16613,6.08198 4.5488,9.64088 6.07093,9.06793 0.67154,-0.25277 11.26965,-3.60054 23.55138,-7.43948 z"
      id="path1652"/>
    <path
      style="fill:#f9f9f9;fill-opacity:1;stroke:#000000;stroke-width:1.03862;stroke-opacity:0.00784314"
      d="m 496.46222,1028.1935 c -35.0259,-2.3828 -80.30831,-11.6471 -117.3645,-24.0115 -32.58062,-10.8711 -70.33053,-28.1945 -97.61654,-44.79617 -3.88854,-2.36591 -32.21057,-20.87415 -33.25007,-21.72868 -0.57124,-0.4696 -4.31029,-3.27777 -8.30899,-6.24039 -3.9987,-2.96262 -7.78058,-5.87578 -8.40417,-6.4737 -0.62359,-0.5979 -2.67227,-2.25555 -4.5526,-3.68366 -3.48615,-2.64771 -3.99049,-3.06391 -12.95296,-10.68924 -18.91186,-16.09032 -46.68022,-44.11114 -56.82402,-57.34063 -1.31401,-1.71373 -2.86646,-3.62608 -3.44989,-4.24967 -0.58342,-0.62359 -2.22922,-2.67619 -3.65733,-4.56134 -1.4281,-1.88514 -3.87398,-4.88028 -5.43527,-6.65587 -1.56129,-1.77559 -4.5992,-5.79894 -6.75089,-8.94078 -2.15171,-3.14184 -4.73018,-6.61847 -5.72994,-7.72586 -0.99976,-1.1074 -1.81775,-2.35931 -1.81775,-2.78203 0,-0.42273 -0.60645,-1.38621 -1.34767,-2.14106 -1.8861,-1.92081 -7.99995,-10.94391 -7.99995,-11.80669 0,-0.39178 -1.5803,-2.87818 -3.51178,-5.5253 -1.93148,-2.64713 -4.39674,-6.44879 -5.47836,-8.44814 -1.08162,-1.99935 -2.73354,-4.80364 -3.67094,-6.23175 C 101.00173,772.98352 84.437364,739.13372 75.8642,717.79859 39.95726,628.44079 31.511735,522.04467 52.936072,428.95167 c 1.906249,-8.28303 4.416605,-18.79909 5.57857,-23.36904 3.243409,-12.75614 14.477683,-46.12007 19.059989,-56.605 0.873791,-1.99935 4.311752,-9.85378 7.639912,-17.45429 6.326436,-14.44767 23.025937,-46.19811 26.795617,-50.946 1.23254,-1.55238 3.30437,-5.00047 4.45795,-7.41925 1.17008,-2.45336 13.07904,-20.10125 14.59319,-21.62564 0.74979,-0.75485 1.36382,-1.68961 1.36452,-2.07725 6.9e-4,-0.38762 1.0523,-1.94655 2.3369,-3.46429 1.2846,-1.51773 3.03671,-3.78138 3.89357,-5.03033 0.85687,-1.24896 2.37585,-3.23351 3.37553,-4.41012 0.99967,-1.17662 1.81975,-2.41832 1.8224,-2.75935 0.003,-0.34102 1.30656,-2.02219 2.89758,-3.73592 1.59104,-1.71373 3.57524,-4.10279 4.40936,-5.30902 1.50862,-2.18168 7.66406,-9.43462 16.56962,-19.52391 5.23474,-5.93058 30.34999,-31.09788 37.40696,-37.4845 8.59643,-7.77985 27.32818,-23.30089 30.00221,-24.8597 0.91646,-0.53424 2.19326,-1.469 2.83732,-2.07725 0.64406,-0.60824 2.22031,-1.80697 3.50279,-2.66383 1.28247,-0.85687 2.8661,-2.06607 3.51917,-2.68713 0.65307,-0.62106 2.87071,-2.25689 4.92809,-3.63518 2.05738,-1.3783 7.28693,-4.95974 11.62122,-7.95877 4.33431,-2.99903 8.08209,-5.45278 8.32842,-5.45278 0.24632,0 3.18855,-1.80427 6.5383,-4.0095 10.56076,-6.95245 54.59884,-30.250592 57.21906,-30.271483 0.44141,-0.0035 2.20472,-0.753502 3.91845,-1.666629 5.40784,-2.881462 30.58631,-12.417991 45.69945,-17.309006 54.17761,-17.533311 102.10249,-24.426562 162.02533,-23.304828 31.41099,0.588002 48.04194,2.074297 73.74229,6.590285 7.99741,1.40528 15.94288,2.799768 17.65661,3.098863 1.71373,0.299095 5.92016,1.260287 9.34762,2.135982 3.42745,0.875695 7.40019,1.806266 8.8283,2.067934 6.03554,1.105877 22.52699,6.033991 39.93494,11.933692 16.70267,5.66068 22.28667,7.800766 39.00047,14.947075 12.39306,5.298893 50.97357,25.344415 54.09023,28.104015 0.90185,0.79852 1.98311,1.45186 2.4028,1.45186 0.84261,0 27.8438,17.50013 28.67413,18.5844 0.28563,0.37297 1.90931,1.56462 3.60819,2.64811 1.69888,1.0835 3.5684,2.36667 4.1545,2.85148 3.32172,2.74775 5.80674,4.6529 7.87333,6.0361 2.98746,1.99957 19.66653,15.37439 21.89089,17.55414 0.9319,0.91322 5.37202,4.91332 9.86693,8.8891 17.31133,15.31204 43.9831,43.56893 54.39131,57.62382 1.4281,1.92847 3.08576,4.01652 3.68366,4.64011 0.59792,0.62359 3.51108,4.40547 6.47369,8.40417 2.96263,3.9987 5.84032,7.81173 6.39488,8.47338 0.55457,0.66167 2.75135,3.92785 4.88173,7.25818 2.1304,3.33033 4.26181,6.52802 4.73648,7.10597 2.62589,3.19725 17.45176,27.14635 17.45176,28.19088 0,0.32017 0.88334,1.82272 1.96297,3.33901 3.56653,5.009 20.52431,39.92327 25.55296,52.61084 2.71691,6.85492 5.53026,13.86563 6.25188,15.57936 2.4413,5.79758 11.7482,35.24 14.9384,47.25739 12.5512,47.28083 18.4917,103.27871 15.8929,149.81423 -2.1366,38.25893 -5.3131,59.28034 -15.264,101.01344 -1.7819,7.47325 -13.2769,43.66262 -15.47249,48.71164 -0.77002,1.77076 -3.66152,8.82812 -6.42556,15.68304 -5.2267,12.96236 -25.41672,53.79871 -28.02222,56.67777 -0.82065,0.9068 -1.49303,2.07931 -1.49418,2.60557 -10e-4,0.52626 -2.10436,4.15511 -4.6738,8.0641 -2.56945,3.90898 -4.67172,7.31542 -4.67172,7.56986 0,0.57936 -12.57865,19.40891 -13.43856,20.11679 -0.34696,0.28562 -1.51735,1.9093 -2.60084,3.60819 -1.08349,1.69887 -2.36666,3.5684 -2.85148,4.15449 -2.74774,3.32172 -4.6529,5.80674 -6.0361,7.87333 -1.95526,2.92128 -15.01244,19.14556 -18.76164,23.31238 -1.54196,1.71373 -5.53849,6.15385 -8.88118,9.86693 -14.17772,15.74873 -44.83108,44.72565 -53.77325,50.83237 -1.20623,0.82376 -2.42684,1.76604 -2.71246,2.09396 -0.8123,0.93261 -6.73352,5.58935 -9.29984,7.31386 -1.27514,0.85686 -3.56022,2.62784 -5.07795,3.93551 -1.51773,1.30767 -4.39534,3.3862 -6.39469,4.61898 -1.99935,1.23277 -3.86887,2.53916 -4.1545,2.90309 -0.77989,0.99371 -18.7842,12.94981 -22.89823,15.20601 -1.97267,1.08184 -5.4562,3.16727 -7.74117,4.63429 -9.06213,5.81815 -37.245,20.50363 -49.95569,26.03082 -12.66379,5.50678 -16.05863,6.92687 -21.70936,9.08116 -3.42746,1.30669 -7.63389,2.97167 -9.34761,3.69996 -1.71373,0.72829 -4.28433,1.63921 -5.71244,2.02431 -1.4281,0.385 -3.53132,1.0946 -4.6738,1.5768 -3.9144,1.6522 -10.38609,3.9612 -11.42487,4.0763 -0.57124,0.063 -3.18182,0.827 -5.8013,1.697 -2.61947,0.8701 -5.65745,1.8031 -6.75106,2.0734 -1.0936,0.2703 -8.99908,2.3211 -17.56773,4.5574 -8.56865,2.2362 -16.9815,4.3152 -18.69523,4.6198 -1.71373,0.3047 -8.25706,1.4831 -14.54073,2.6187 -16.07073,2.9042 -33.85465,5.0899 -51.41189,6.3185 -16.86798,1.1805 -56.85412,1.176 -74.26161,-0.01 z m 99.99987,-292.30333 c 49.36278,-4.93874 92.68603,-16.05032 135.76776,-34.82179 30.93453,-13.47872 52.45051,-23.98357 52.45051,-25.60816 0,-1.39783 -6.82589,-14.67911 -8.42983,-16.4021 -1.14367,-1.22857 -5.23183,0.21108 -19.01324,6.69555 -19.69499,9.26694 -24.34012,11.35572 -37.64882,16.9297 -13.16602,5.5142 -31.24132,12.15151 -33.57738,12.32972 -0.28563,0.0218 -3.38671,1.1189 -6.89131,2.43802 -13.85198,5.21387 -39.8978,11.2477 -62.17718,14.40408 -18.27228,2.58868 -33.62426,3.7197 -59.72088,4.39979 -42.0719,1.0964 -83.6545,-2.25947 -113.21,-9.13646 -4.85557,-1.12981 -9.71514,-2.23802 -10.79903,-2.4627 -17.57279,-3.64277 -48.07313,-15.90157 -72.59992,-29.17964 -6.97057,-3.77366 -16.59341,-8.9739 -21.38408,-11.5561 l -8.71031,-4.6949 -1.93895,2.4874 c -2.48399,3.18663 -9.50417,15.53964 -9.03761,15.90299 0.19489,0.15177 4.05511,2.33654 8.57828,4.85504 4.52316,2.51851 11.76757,6.5769 16.09867,9.01867 33.2669,18.75499 64.54489,30.55277 99.79295,37.64103 21.06591,4.23628 35.2621,5.9752 71.14573,8.71474 11.32231,0.86442 66.34998,-0.45867 81.30464,-1.95488 z M 576.42629,613.4171 c 15.05442,-5.18659 25.24164,-12.85913 39.33857,-29.62795 9.97537,-11.86607 14.16053,-17.76641 14.16053,-19.96383 0,-2.02747 -10.41847,-9.94662 -14.4008,-10.94612 -1.80983,-0.45424 -2.95395,-0.0708 -3.97852,1.33315 -0.79096,1.08391 -2.24507,2.90551 -3.23132,4.048 -0.98627,1.14248 -3.17891,3.94677 -4.87255,6.23174 -3.20242,4.32055 -12.0959,14.14563 -15.41727,17.03225 -1.05239,0.91464 -3.38929,2.95315 -5.19312,4.53001 -1.80382,1.57687 -5.61658,4.02671 -8.47279,5.4441 -4.8791,2.42124 -6.22942,2.58029 -22.33042,2.63028 -16.29856,0.0506 -17.56936,-0.0951 -25.9656,-2.9786 -16.61565,-5.70614 -32.4919,-14.56688 -44.30767,-24.72867 -1.23387,-1.06115 -4.25594,-3.5652 -6.7157,-5.56455 -2.45976,-1.99936 -6.59142,-5.61364 -9.18146,-8.03175 -2.59003,-2.4181 -4.95454,-4.40447 -5.25447,-4.41415 -0.29991,-0.009 -3.9686,3.42871 -8.15262,7.64085 -7.24935,7.29804 -7.5107,7.72611 -5.55385,9.09674 1.12941,0.79107 4.83767,4.00495 8.24059,7.14196 25.7615,23.74846 44.62702,34.42587 74.56037,42.19927 8.06969,2.09562 11.33549,2.38368 23.88835,2.10699 12.65581,-0.27896 15.61654,-0.69115 22.83975,-3.17972 z M 427.09818,467.39898 c 16.17483,-1.11606 29.17521,-4.92535 47.03363,-13.78147 9.93954,-4.92909 11.96357,-6.46918 22.84973,-17.3863 15.82137,-15.8664 21.85869,-26.32607 25.58,-44.31746 2.29614,-11.10112 1.50557,-30.19948 -1.66983,-40.33956 -9.40968,-30.04805 -33.78245,-52.29202 -70.64825,-64.47755 -8.36219,-2.76402 -10.01853,-2.93943 -31.37181,-3.32242 -31.72559,-0.56902 -39.32258,0.89972 -62.10434,12.00677 -11.47182,5.59298 -12.47861,6.35953 -25.45822,19.38338 -16.06805,16.12279 -20.92635,23.81437 -25.01619,39.60523 -2.40347,9.27976 -2.61206,11.60028 -2.09349,23.2895 0.669,15.08049 2.06997,21.45357 7.07783,32.19734 9.01723,19.34539 26.55827,35.72618 50.02869,46.71957 21.66495,10.14772 36.2635,12.46046 65.79225,10.42297 z m 247.48804,-0.0183 c 16.22761,-1.38705 25.70833,-3.60204 37.39046,-8.73556 12.5607,-5.51959 21.27134,-11.41012 31.50665,-21.30622 12.29915,-11.89156 19.9308,-24.52126 24.20987,-40.06527 1.87011,-6.79324 1.83469,-28.09732 -0.0614,-36.95101 -6.05852,-28.28956 -31.67761,-53.73066 -66.04132,-65.5825 -12.85176,-4.4325 -12.89948,-4.43795 -38.9484,-4.4415 l -23.88835,-0.003 -10.38624,3.33632 c -30.57417,9.8212 -52.84099,27.805 -64.02886,51.71293 -4.57013,9.76615 -6.07781,16.23854 -6.77847,29.09964 -1.02464,18.80799 3.32752,34.38719 13.95672,49.9602 4.68694,6.86689 17.07474,19.16172 24.13396,23.95282 7.23615,4.91121 20.6519,11.34712 29.88084,14.33471 17.34166,5.61382 27.20338,6.55641 49.05457,4.6887 z M 783.0619,271.34049 c 2.75056,-4.17576 10.86365,-22.05654 13.02596,-28.70843 1.18694,-3.65139 1.12591,-4.14988 -0.63279,-5.16889 -2.84812,-1.65025 -19.75652,-9.30559 -34.73077,-15.72452 -7.17779,-3.07685 -16.29171,-7.05914 -20.25317,-8.84954 -3.96147,-1.7904 -8.67544,-3.9185 -10.4755,-4.72912 -1.80006,-0.81061 -3.52012,-1.47383 -3.82237,-1.47383 -0.30225,0 -3.57887,-1.40215 -7.28139,-3.11588 -3.70253,-1.71373 -6.97419,-3.11587 -7.27037,-3.11587 -0.29618,0 -3.72594,-1.4318 -7.62169,-3.18178 -3.89574,-1.74998 -8.01794,-3.59504 -9.16042,-4.10013 -20.43095,-9.03256 -71.7448,-30.10855 -73.30549,-30.10855 -1.8997,0 -15.49685,30.84123 -15.49685,35.15015 0,1.47967 1.11689,2.44783 3.8733,3.35752 2.13032,0.70307 7.72877,3.07623 12.441,5.27367 4.71224,2.19745 8.79052,3.99536 9.06286,3.99536 0.27234,0 3.43727,1.3685 7.0332,3.04112 3.59591,1.67261 10.27708,4.65632 14.84702,6.63046 4.56995,1.97415 10.96649,4.81207 14.21453,6.3065 3.24804,1.49443 6.12751,2.71715 6.39882,2.71715 0.27131,0 3.92346,1.58416 8.11589,3.52037 4.19243,1.9362 16.03545,7.13045 26.31783,11.54278 10.28238,4.41233 20.56475,8.87082 22.84972,9.90776 3.52239,1.59849 19.45606,8.48457 32.71666,14.13921 1.99935,0.85257 5.03732,2.15767 6.75105,2.90023 6.58257,2.85221 8.33417,3.55083 9.07322,3.61881 0.42034,0.0386 1.91872,-1.68238 3.32975,-3.82455 z M 323.53134,256.3415 c 7.14054,-2.24145 18.35768,-5.74372 24.92698,-7.78283 6.56929,-2.0391 15.91691,-5.02409 20.77248,-6.63332 4.85556,-1.60924 16.54008,-5.34956 25.96559,-8.31185 9.42552,-2.96228 21.81111,-6.90645 27.52354,-8.7648 5.71243,-1.85836 22.42129,-7.26937 37.1308,-12.02447 20.39784,-6.59396 26.74457,-9.04479 26.74457,-10.3276 0,-1.92338 -5.26331,-21.19359 -8.42995,-30.86403 -1.16911,-3.57027 -2.71143,-6.4914 -3.42738,-6.4914 -1.36794,0 -9.73263,2.57172 -48.90217,15.03491 -13.13859,4.18051 -30.89906,9.78701 -39.46771,12.45886 -8.56865,2.67186 -18.85102,5.96018 -22.84973,7.3074 -3.9987,1.34721 -14.04738,4.60485 -22.33041,7.2392 -42.14681,13.40444 -47.7767,15.47145 -47.7767,17.54121 0,4.40104 9.00571,32.6741 11.21451,35.20754 1.04975,1.20402 2.33902,1.60155 3.76014,1.15941 1.18946,-0.37008 8.00491,-2.50678 15.14544,-4.74823 z"
      id="path4152"/>
    <path
      style="fill:#f9f9f9;fill-opacity:1;stroke:#000000;stroke-width:1.03862;stroke-opacity:0.00784314"
      d="m 500.09741,1028.6008 c -30.12454,-2.8428 -45.92863,-5.1172 -67.82286,-9.7605 -30.28459,-6.4228 -65.34377,-17.5541 -91.60591,-29.08497 -2.85622,-1.25408 -7.29633,-3.20779 -9.86693,-4.34159 -9.45696,-4.17111 -31.69728,-15.57485 -32.31346,-16.56874 -0.34949,-0.56371 -1.05057,-0.98385 -1.55793,-0.93362 -1.37878,0.13651 -19.43993,-10.23848 -20.75906,-11.92475 -0.62773,-0.80244 -1.37903,-1.22126 -1.66959,-0.93071 -0.29054,0.29054 -1.11947,-0.1841 -1.84206,-1.05477 -0.72259,-0.87067 -1.74507,-1.58303 -2.27217,-1.58303 -2.20847,0 -35.765,-23.87041 -38.12202,-27.11807 -0.78374,-1.07987 -1.903,-1.9634 -2.48726,-1.9634 -0.58427,0 -2.04624,-0.9301 -3.24885,-2.0669 -4.81926,-4.55553 -7.83394,-7.08632 -8.85558,-7.43415 -4.32141,-1.47131 -45.80218,-42.722 -58.24496,-57.92189 -1.99935,-2.44237 -4.4531,-5.20094 -5.45278,-6.13015 -0.99967,-0.92922 -1.81759,-2.27024 -1.81759,-2.98006 0,-0.7098 -0.93476,-1.79083 -2.07725,-2.40227 -1.14248,-0.61144 -2.07724,-1.79633 -2.07724,-2.6331 0,-0.83677 -0.41123,-1.5214 -0.91384,-1.5214 -1.13384,0 -9.4724,-10.93237 -9.4724,-12.41892 0,-0.59575 -0.40711,-1.08319 -0.90469,-1.08319 -1.1459,0 -20.27811,-28.03725 -19.14688,-28.05874 0.46036,-0.008 0.28097,-0.36946 -0.39865,-0.80157 -3.32011,-2.111 -23.943139,-39.86909 -33.459157,-61.25937 -2.863651,-6.43696 -5.239918,-11.92267 -5.280594,-12.19046 -0.04068,-0.26779 -1.009155,-2.66862 -2.152178,-5.33518 C 72.128432,709.42452 64.976985,688.75011 60.868408,674.55822 42.127984,609.82488 36.601532,541.48763 44.724963,474.93676 c 2.441995,-20.00594 7.124903,-44.95238 11.069362,-58.96789 0.643072,-2.28497 1.327751,-5.08926 1.521509,-6.23174 0.504789,-2.97649 6.657423,-23.692 7.398039,-24.90872 0.341602,-0.5612 0.709805,-1.72965 0.818228,-2.59656 0.213953,-1.71067 5.610551,-17.29977 7.736613,-22.34867 0.721643,-1.71373 1.417762,-3.58325 1.546932,-4.15449 0.657642,-2.90837 7.293196,-17.75973 8.22987,-18.41968 0.595661,-0.41968 0.722985,-0.77022 0.282943,-0.77897 -0.440042,-0.008 0.213293,-2.00226 1.451855,-4.43005 1.238563,-2.42778 2.179704,-4.53256 2.091425,-4.67729 -0.342497,-0.56148 11.591857,-23.661 12.534243,-24.26064 0.549253,-0.3495 0.907338,-0.96299 0.795738,-1.36334 -0.279273,-1.00189 14.65345,-27.22516 16.90312,-29.68349 0.99968,-1.09239 1.8176,-2.26504 1.8176,-2.60589 0,-0.98426 8.59252,-13.45124 9.53523,-13.83475 0.46805,-0.19042 0.85101,-0.84903 0.85101,-1.46356 0,-1.39827 8.19134,-12.43317 10.07598,-13.57378 0.76591,-0.46353 1.14123,-1.24947 0.83404,-1.74652 -0.3072,-0.49705 0.38107,-1.56186 1.52948,-2.36623 1.14841,-0.80438 1.86527,-1.68526 1.59301,-1.95751 -0.27225,-0.27225 1.36656,-2.43233 3.64179,-4.80017 2.27524,-2.36784 4.1368,-4.70633 4.1368,-5.19663 0,-0.49029 1.0516,-1.91709 2.3369,-3.17066 1.2853,-1.25356 3.57954,-3.79159 5.0983,-5.64007 11.45487,-13.94157 31.42045,-34.4424 49.80248,-51.13757 8.41715,-7.64474 25.39226,-21.29179 26.48416,-21.29179 0.5201,0 1.54074,-0.9529 2.26807,-2.11755 0.72734,-1.16465 1.74581,-1.85589 2.26326,-1.53609 0.51744,0.3198 1.32008,-0.0634 1.78362,-0.85162 1.09531,-1.86244 15.21062,-12.11272 16.68002,-12.11272 0.61983,0 1.28276,-0.37775 1.47318,-0.83943 0.4818,-1.1682 9.83965,-7.46957 11.09268,-7.46957 0.56353,0 1.18039,-0.40893 1.37081,-0.90874 0.93519,-2.45477 44.69574,-26.579871 45.94579,-25.329825 0.34054,0.340549 0.61918,0.04632 0.61918,-0.653844 0,-0.700163 0.46738,-0.984168 1.03862,-0.63112 0.57124,0.353048 1.03862,0.183187 1.03862,-0.377468 0,-0.560655 1.71463,-1.585249 3.81027,-2.276875 2.09565,-0.691626 5.35646,-2.169777 7.24625,-3.284781 1.88979,-1.115004 4.03106,-2.148485 4.75838,-2.296626 0.72732,-0.148141 3.6593,-1.320125 6.51552,-2.604407 9.28559,-4.175213 15.05971,-6.282882 15.07594,-5.503014 0.008,0.420097 0.35929,0.246324 0.77897,-0.386163 0.63784,-0.961251 20.09962,-8.283569 24.3661,-9.167523 0.72817,-0.150866 2.02501,-0.555163 2.88188,-0.898436 7.3129,-2.929663 35.02455,-10.0317 52.96982,-13.575294 33.23261,-6.562332 57.3736,-8.752214 96.07271,-8.714959 40.86263,0.03934 61.8734,1.936884 96.07271,8.676613 23.895,4.709036 54.64082,13.037773 66.99124,18.147261 1.71373,0.708985 3.69799,1.409275 4.40948,1.556198 1.59799,0.32999 14.79665,5.320437 20.79052,7.860949 2.43513,1.032137 4.66008,1.881174 4.94435,1.886749 0.28425,0.0056 2.03091,0.812019 3.88147,1.792099 1.85056,0.980079 3.87802,1.872557 4.5055,1.983285 2.46933,0.435757 33.65304,16.238261 33.65304,17.053851 0,0.47797 1.40214,1.17701 3.11587,1.5534 1.71373,0.3764 3.11587,1.11461 3.11587,1.64046 0,0.52586 0.66769,0.9561 1.48375,0.9561 0.81607,0 2.30166,0.81792 3.30134,1.8176 0.99968,0.99967 2.08467,1.72482 2.41109,1.61145 1.14067,-0.39619 16.69217,9.24177 16.69217,10.34488 0,0.61216 0.28748,0.82554 0.63884,0.47418 0.562,-0.562 6.00837,2.92693 23.24951,14.89361 2.5706,1.78418 5.27816,4.01951 6.0168,4.96739 0.73864,0.94788 1.74961,1.72342 2.24659,1.72342 1.33631,0 17.70221,13.07806 17.70221,14.14591 0,0.50278 0.65953,0.91413 1.46561,0.91413 0.80608,0 2.64543,1.40215 4.08745,3.11588 1.442,1.71373 3.05985,3.11587 3.59522,3.11587 0.53537,0 2.91208,2.10321 5.28157,4.67381 2.36949,2.57059 4.67062,4.6738 5.11364,4.6738 0.84623,0 25.13058,24.65397 33.8232,34.33802 12.33838,13.74562 19.33698,22.29639 19.33698,23.62563 0,0.62409 0.66446,1.50846 1.47658,1.96527 1.83426,1.03177 8.90966,10.21404 8.90966,11.5627 0,0.5444 0.70107,1.25884 1.55794,1.58765 0.85686,0.32881 1.55793,1.27462 1.55793,2.10182 0,0.82719 0.42761,1.65977 0.95022,1.85019 0.95247,0.34702 12.5519,17.04066 12.5519,18.0644 0,0.29952 0.9186,1.53058 2.04133,2.73569 1.12273,1.20511 1.79621,2.58771 1.49663,3.07244 -0.29958,0.48474 -0.14848,0.88134 0.33579,0.88134 0.98762,0 7.83822,10.90956 7.55512,12.03151 -0.0998,0.39547 0.24898,1.00498 0.77502,1.35448 2.34842,1.56021 22.28895,39.95716 23.33367,44.93069 0.16222,0.7723 0.55301,1.63788 0.86838,1.9235 1.92721,1.74534 19.4213,46.8456 19.456,50.15815 0.01,0.45293 0.5171,2.08877 1.1386,3.63518 5.215,12.97687 16.2993,62.91414 18.3706,82.76391 0.2993,2.86822 0.73,6.14969 0.9571,7.29217 0.2272,1.14249 0.7119,5.58261 1.0773,9.86693 0.3654,4.28432 0.8631,8.95813 1.1061,10.38624 0.243,1.42811 0.738,12.87893 1.1001,25.44628 1.6891,58.62555 -7.6394,118.75664 -27.0336,174.25675 -6.51494,18.64359 -15.28127,39.80197 -18.80061,45.37696 -1.37545,2.17884 -2.21578,4.24658 -1.8674,4.59495 0.34838,0.34838 0.0606,0.63342 -0.63961,0.63342 -0.70017,0 -1.02546,0.40056 -0.72288,0.89015 0.60308,0.9758 -10.47126,23.12714 -12.07501,24.15294 -0.54639,0.3495 -0.9103,0.81688 -0.8087,1.03862 0.42816,0.93438 -2.50577,6.11563 -3.46302,6.11563 -0.57476,0 -0.76904,0.27598 -0.43172,0.61328 1.08317,1.08318 -25.19257,42.26325 -31.0876,48.72135 -1.04288,1.14249 -3.245,4.06362 -4.89361,6.4914 -1.6486,2.42779 -3.40128,4.41415 -3.89483,4.41415 -0.49356,0 -0.89738,0.61679 -0.89738,1.37063 0,0.75386 -1.0516,2.36087 -2.3369,3.57116 -1.2853,1.21027 -3.27166,3.44866 -4.41415,4.9742 -12.9287,17.26338 -60.67404,64.51934 -69.10752,68.39917 -1.12102,0.51573 -2.03822,1.25804 -2.03822,1.64958 0,1.01114 -16.28647,13.51142 -17.60387,13.51142 -0.60026,0 -1.09136,0.38374 -1.09136,0.85274 0,1.99845 -49.01253,33.08387 -55.21952,35.0221 -1.33326,0.41633 -2.6578,1.10344 -2.94342,1.52692 -0.86233,1.27851 -23.88711,12.53062 -23.90425,11.68189 -0.008,-0.4332 -0.35928,-0.28037 -0.77897,0.33964 -0.96426,1.42451 -12.70169,6.79912 -12.72314,5.82597 -0.008,-0.39684 -0.35928,-0.19974 -0.77897,0.438 -0.96943,1.47308 -26.4559,11.21685 -45.42389,17.36615 -33.04421,10.7127 -71.02047,18.034 -111.13276,21.4249 -11.26171,0.9521 -64.30163,1.2415 -73.22298,0.3996 z m 74.26161,-291.17862 c 62.04298,-3.54929 117.98618,-17.2795 169.61575,-41.62903 4.74598,-2.2383 8.85659,-4.06963 9.1347,-4.06963 0.6463,0 30.86625,-14.52851 31.46464,-15.12692 0.89427,-0.89425 -8.3418,-18.10905 -9.71584,-18.10905 -0.77687,0 -11.15345,4.51605 -23.05909,10.03566 -11.90562,5.51963 -22.2308,10.03764 -22.94486,10.04004 -0.71405,0.002 -1.29828,0.34318 -1.29828,0.75729 0,0.69507 -5.20092,2.40698 -6.11562,2.01299 -0.22175,-0.0956 -0.68913,0.23163 -1.03863,0.727 -0.6527,0.92516 -19.13357,8.41045 -21.92722,8.88117 -0.85686,0.14437 -1.79162,0.50893 -2.07725,0.81011 -0.61599,0.64956 -12.52177,4.56678 -14.02142,4.6133 -0.57124,0.0178 -1.27231,0.31939 -1.55793,0.67039 -0.7241,0.88984 -17.08057,5.57379 -30.1201,8.62541 -27.85605,6.51911 -55.60103,9.72777 -91.91821,10.63016 -22.26337,0.5532 -63.948,-0.69325 -73.29212,-2.19155 -1.39008,-0.2229 -6.73385,-0.9301 -11.87504,-1.57156 -21.14147,-2.63779 -55.89039,-10.99361 -67.92261,-16.33288 -2.05834,-0.91337 -4.28142,-1.77776 -4.94018,-1.92085 -2.94348,-0.63933 -19.65214,-8.21473 -20.33781,-9.22079 -0.41968,-0.61578 -0.77022,-0.76319 -0.77896,-0.32758 -0.0156,0.77692 -14.5762,-6.14682 -15.59526,-7.41575 -0.28562,-0.35565 -0.9941,-0.72701 -1.5744,-0.82523 -0.58029,-0.0983 -4.08565,-1.90916 -7.78968,-4.02429 -3.70402,-2.11514 -10.67635,-5.90751 -15.49404,-8.42748 l -8.75944,-4.58179 -2.36841,2.89364 c -1.30263,1.5915 -2.38522,3.43892 -2.40577,4.10538 -0.0206,0.66644 -0.38788,1.36751 -0.81632,1.55793 -0.42843,0.19042 -1.8362,2.31811 -3.12838,4.72822 l -2.34942,4.38201 2.34942,1.47429 c 8.03141,5.03982 34.53995,19.47168 45.97162,25.028 26.12312,12.69704 54.04326,21.67781 84.12854,27.06074 36.94079,6.60953 81.75983,9.07457 122.55762,6.74065 z m -4.4977,-122.1484 c 19.34359,-4.3996 33.70319,-15.2237 52.35361,-39.46352 7.95832,-10.34337 7.98162,-10.38557 7.16109,-12.97081 -0.76448,-2.40868 -12.29191,-10.29154 -15.04976,-10.29154 -0.97622,0 -3.07055,1.86953 -4.65403,4.1545 -1.58349,2.28497 -3.28288,4.1545 -3.77644,4.1545 -0.49355,0 -0.89737,0.60518 -0.89737,1.34486 0,0.73967 -2.25344,3.78322 -5.00764,6.76343 -2.7542,2.98021 -4.85595,5.57026 -4.67056,5.75565 0.40001,0.40001 -5.55506,5.91774 -12.22865,11.33061 -2.62325,2.12768 -5.077,3.56108 -5.45278,3.1853 -0.37576,-0.37577 -0.68321,-0.18868 -0.68321,0.41573 0,0.60443 -1.87899,1.85078 -4.17552,2.76967 -3.24114,1.29685 -7.97601,1.67071 -21.15921,1.67071 -15.26334,0 -17.78255,-0.26077 -24.87007,-2.57436 -7.62555,-2.48924 -17.27859,-6.5695 -18.34438,-7.75403 -0.28562,-0.31743 -1.22038,-0.73081 -2.07725,-0.91861 -0.85686,-0.1878 -2.2958,-1.00572 -3.19765,-1.81759 -0.90185,-0.81188 -2.13803,-1.47614 -2.74707,-1.47614 -1.18554,0 -16.04717,-10.33574 -19.50156,-13.56264 -1.14249,-1.06724 -3.65444,-3.24291 -5.58213,-4.8348 -1.92769,-1.5919 -4.60441,-3.914 -5.94828,-5.16025 -1.34389,-1.24624 -4.01496,-3.46457 -5.93573,-4.92961 l -3.49231,-2.6637 -6.91772,7.16551 c -3.80476,3.94104 -6.91774,7.42217 -6.91774,7.73583 0,2.42778 28.84467,26.26673 40.88054,33.78611 11.07326,6.918 29.84012,14.36465 45.84456,18.19104 8.64958,2.06797 27.94277,2.06492 37.04726,-0.006 z M 425.8358,467.38297 c 19.61213,-1.39894 36.26684,-6.67122 54.13993,-17.13875 14.24354,-8.34185 33.38078,-29.90544 38.35135,-43.2138 6.54955,-17.53588 7.42117,-40.51112 2.13493,-56.27414 -3.70202,-11.03902 -6.71339,-16.69255 -14.14363,-26.55323 -11.39805,-15.12635 -30.5999,-28.02239 -53.99767,-36.26508 l -10.90555,-3.84186 -23.0094,-0.36108 c -26.50506,-0.41594 -34.37912,0.6263 -48.89282,6.47164 -19.19746,7.73171 -24.75566,11.34808 -38.27223,24.90133 -14.2564,14.29509 -20.18846,23.26536 -24.11512,36.46619 -4.9521,16.64824 -3.9429,39.15605 2.46249,54.9198 7.75375,19.08211 26.29946,37.90467 48.22752,48.94746 12.0538,6.0702 28.26593,11.03311 38.90315,11.90915 13.34792,1.09928 14.14701,1.10018 29.11705,0.0324 z m 259.84338,-1.12423 c 14.54563,-2.00806 31.8022,-8.87161 44.85657,-17.84107 12.09716,-8.31177 25.89352,-23.98571 31.25272,-35.50598 5.81668,-12.50368 6.62942,-15.99707 7.08379,-30.44798 0.53864,-17.13096 -1.20377,-26.06944 -7.67234,-39.35865 -3.62164,-7.44041 -6.56109,-11.56133 -13.51852,-18.95218 -13.47157,-14.31079 -28.9196,-23.79468 -50.24545,-30.84683 -8.68646,-2.87248 -9.22882,-2.91953 -33.75528,-2.92795 -24.2374,-0.008 -25.18556,0.0703 -34.27459,2.84443 -18.88644,5.76437 -39.19482,17.87514 -49.33463,29.42039 -8.20179,9.33859 -9.34762,10.78319 -9.34762,11.78498 0,0.57619 -0.36037,1.04762 -0.80083,1.04762 -1.19779,0 -8.47407,15.66496 -10.2178,21.99771 -2.56879,9.32914 -3.04045,27.07022 -0.98964,37.2242 4.06976,20.1501 18.12548,40.54586 36.93525,53.59544 10.98585,7.62161 29.80869,15.34398 45.30653,18.58771 7.94124,1.66214 30.44412,1.34924 44.72184,-0.62184 z m 97.79751,-195.60425 c 3.00532,-4.73891 11.99265,-25.08595 13.13568,-29.7388 0.61091,-2.48678 0.0519,-2.92437 -9.53638,-7.46585 -5.60192,-2.65333 -22.24265,-10.00238 -36.97939,-16.33123 -14.73673,-6.32883 -28.75816,-12.40045 -31.15872,-13.49247 -19.24943,-8.7566 -95.78094,-40.56219 -97.60189,-40.56219 -1.57369,0 -15.29894,31.15264 -15.29894,34.72449 0,1.01116 2.32007,2.69036 5.97208,4.32239 3.28465,1.46788 25.60208,11.30791 49.59429,21.86677 23.99222,10.55885 45.49173,20.04053 47.7767,21.0704 2.28498,1.02987 8.36093,3.63028 13.50211,5.7787 5.14119,2.14841 12.1519,5.18436 15.57936,6.74655 10.01075,4.56276 40.43188,17.51983 41.30817,17.59412 0.44102,0.0374 2.10914,-1.99341 3.70693,-4.51288 z M 366.63424,242.56908 c 92.96377,-29.54896 118.08031,-37.74122 119.22754,-38.88845 0.75463,-0.75464 0.38595,-3.7056 -1.21007,-9.68577 -4.38204,-16.41916 -8.53787,-28.85366 -9.6434,-28.85366 -0.61134,0 -7.95252,2.14917 -16.31372,4.77595 -30.52137,9.58865 -84.353,26.7008 -108.05685,34.34942 -13.36802,4.31351 -24.81885,7.93601 -25.44629,8.05001 -2.31319,0.42028 -28.20898,9.16089 -30.06142,10.14663 -2.3857,1.26951 -2.00474,3.6509 3.39601,21.22907 4.38375,14.26805 6.56522,18.42783 9.22408,17.58914 0.96789,-0.30531 27.46574,-8.72586 58.88412,-18.71234 z"
      id="path4154"/>
    <path
      style="fill:#f9f9f9;fill-opacity:1;stroke:#000000;stroke-width:1.03862;stroke-opacity:0.00784314"
      d="m 646.54338,452.73244 c -8.82178,-1.35278 -23.57217,-6.33376 -32.1311,-10.85018 -26.46597,-13.96573 -42.68331,-37.832 -42.63447,-62.74309 0.065,-33.15253 26.08354,-62.00676 65.16052,-72.26216 42.6832,-11.20183 90.8571,6.83966 109.66804,41.0715 7.39873,13.4641 9.84777,25.40629 7.87675,38.40918 -4.68614,30.91466 -29.3053,54.91428 -66.18906,64.5234 -9.42908,2.45651 -31.43947,3.43251 -41.75068,1.85135 z m 51.63017,-54.59337 c 4.44023,-2.10703 10.11428,-9.65974 11.81427,-15.72596 1.96457,-7.01033 -0.11884,-14.43288 -5.83595,-20.79169 -6.16121,-6.85275 -12.95911,-9.73945 -22.84414,-9.70068 -15.83158,0.0621 -24.33249,7.92391 -24.33249,22.50318 0,11.84829 6.8967,20.90283 18.64289,24.47585 5.03033,1.53016 18.69927,1.06916 22.55542,-0.7607 z"
      id="path4156"/>
    <path
      style="fill:#f9f9f9;fill-opacity:1;stroke:#000000;stroke-width:1.03862;stroke-opacity:0.00784314"
      d="m 395.01075,452.39291 c -50.26127,-8.89553 -85.28083,-51.57196 -75.09363,-91.51255 6.94534,-27.23036 27.28805,-47.10541 59.86523,-58.48899 16.75978,-5.85643 44.02792,-6.77469 61.93068,-2.08551 9.91345,2.59658 27.50059,10.85149 35.9216,16.8606 19.33472,13.79697 30.572,33.45008 31.55101,55.18021 0.57785,12.82589 -1.21746,21.23482 -6.9269,32.4446 -11.99451,23.54975 -35.1053,40.15473 -64.9014,46.63135 -10.21019,2.21932 -32.41466,2.7281 -42.34659,0.97029 z m 42.26954,-61.30761 c 6.25752,-3.66715 12.67346,-9.45324 14.58835,-13.15623 0.83474,-1.6142 1.48835,-5.76182 1.48537,-9.42566 -0.008,-9.99267 -4.71789,-16.45689 -14.7275,-20.2137 -5.5823,-2.09515 -21.51604,-2.34298 -27.33145,-0.42511 -9.93996,3.27812 -14.99705,10.44071 -15.03723,21.29793 -0.0289,7.80422 2.72244,13.71131 8.93215,19.17732 5.67606,4.99626 10.13902,6.3369 19.75706,5.93485 5.87392,-0.24554 8.44406,-0.91018 12.33325,-3.1894 z"
      id="path4158"/>
  </g>
  <sodipodi:namedview
    bordercolor="#000000"
    borderopacity="0.25"
    id="namedview4"
    pagecolor="#ffffff"
    showgrid="false"
    inkscape:current-layer="g8"
    inkscape:cx="311.06786"
    inkscape:cy="532.81406"
    inkscape:deskcolor="#d1d1d1"
    inkscape:pagecheckerboard="0"
    inkscape:pageopacity="0.0"
    inkscape:showpageshadow="2"
    inkscape:window-height="1369"
    inkscape:window-maximized="1"
    inkscape:window-width="2560"
    inkscape:window-x="2552"
    inkscape:window-y="189"
    inkscape:zoom="0.96281243"/>
</svg>
