<?xml version="1.0" encoding="UTF-8" ?>
<svg height="1600" shape-rendering="crispEdges" version="1.1" width="1600" xmlns="http://www.w3.org/2000/svg">
  <rect fill="#1E1E23" height="100" width="100" x="500" y="100"/>
  <rect fill="#1E1E23" height="100" width="100" x="600" y="100"/>
  <rect fill="#1E1E23" height="100" width="100" x="500" y="200"/>
  <rect fill="#1E1E23" height="100" width="100" x="600" y="200"/>
  <rect fill="#1E1E23" height="100" width="100" x="400" y="300"/>
  <rect fill="#1E1E23" height="100" width="100" x="500" y="300"/>
  <rect fill="#1E1E23" height="100" width="100" x="600" y="300"/>
  <rect fill="#1E1E23" height="100" width="100" x="700" y="300"/>
  <rect fill="#1E1E23" height="100" width="100" x="800" y="300"/>
  <rect fill="#1E1E23" height="100" width="100" x="900" y="300"/>
  <rect fill="#1E1E23" height="100" width="100" x="1000" y="300"/>
  <rect fill="#1E1E23" height="100" width="100" x="1100" y="300"/>
  <rect fill="#1E1E23" height="100" width="100" x="400" y="400"/>
  <rect fill="#324F5E" height="100" width="100" x="500" y="400"/>
  <rect fill="#324F5E" height="100" width="100" x="600" y="400"/>
  <rect fill="#324F5E" height="100" width="100" x="700" y="400"/>
  <rect fill="#324F5E" height="100" width="100" x="800" y="400"/>
  <rect fill="#324F5E" height="100" width="100" x="900" y="400"/>
  <rect fill="#324F5E" height="100" width="100" x="1000" y="400"/>
  <rect fill="#1E1E23" height="100" width="100" x="1100" y="400"/>
  <rect fill="#1E1E23" height="100" width="100" x="400" y="500"/>
  <rect fill="#324F5E" height="100" width="100" x="500" y="500"/>
  <rect fill="#87BA55" height="100" width="100" x="600" y="500"/>
  <rect fill="#87BA55" height="100" width="100" x="700" y="500"/>
  <rect fill="#5DAE5A" height="100" width="100" x="800" y="500"/>
  <rect fill="#5DAE5A" height="100" width="100" x="900" y="500"/>
  <rect fill="#324F5E" height="100" width="100" x="1000" y="500"/>
  <rect fill="#1E1E23" height="100" width="100" x="1100" y="500"/>
  <rect fill="#1E1E23" height="100" width="100" x="400" y="600"/>
  <rect fill="#324F5E" height="100" width="100" x="500" y="600"/>
  <rect fill="#87BA55" height="100" width="100" x="600" y="600"/>
  <rect fill="#5DAE5A" height="100" width="100" x="700" y="600"/>
  <rect fill="#5DAE5A" height="100" width="100" x="800" y="600"/>
  <rect fill="#5DAE5A" height="100" width="100" x="900" y="600"/>
  <rect fill="#324F5E" height="100" width="100" x="1000" y="600"/>
  <rect fill="#1E1E23" height="100" width="100" x="1100" y="600"/>
  <rect fill="#1E1E23" height="100" width="100" x="400" y="700"/>
  <rect fill="#324F5E" height="100" width="100" x="500" y="700"/>
  <rect fill="#87BA55" height="100" width="100" x="600" y="700"/>
  <rect fill="#87BA55" height="100" width="100" x="700" y="700"/>
  <rect fill="#87BA55" height="100" width="100" x="800" y="700"/>
  <rect fill="#5DAE5A" height="100" width="100" x="900" y="700"/>
  <rect fill="#324F5E" height="100" width="100" x="1000" y="700"/>
  <rect fill="#1E1E23" height="100" width="100" x="1100" y="700"/>
  <rect fill="#1E1E23" height="100" width="100" x="400" y="800"/>
  <rect fill="#324F5E" height="100" width="100" x="500" y="800"/>
  <rect fill="#87BA55" height="100" width="100" x="600" y="800"/>
  <rect fill="#87BA55" height="100" width="100" x="700" y="800"/>
  <rect fill="#87BA55" height="100" width="100" x="800" y="800"/>
  <rect fill="#87BA55" height="100" width="100" x="900" y="800"/>
  <rect fill="#324F5E" height="100" width="100" x="1000" y="800"/>
  <rect fill="#1E1E23" height="100" width="100" x="1100" y="800"/>
  <rect fill="#1E1E23" height="100" width="100" x="400" y="900"/>
  <rect fill="#324F5E" height="100" width="100" x="500" y="900"/>
  <rect fill="#87BA55" height="100" width="100" x="600" y="900"/>
  <rect fill="#87BA55" height="100" width="100" x="700" y="900"/>
  <rect fill="#828E4D" height="100" width="100" x="800" y="900"/>
  <rect fill="#828E4D" height="100" width="100" x="900" y="900"/>
  <rect fill="#324F5E" height="100" width="100" x="1000" y="900"/>
  <rect fill="#1E1E23" height="100" width="100" x="1100" y="900"/>
  <rect fill="#1E1E23" height="100" width="100" x="400" y="1000"/>
  <rect fill="#324F5E" height="100" width="100" x="500" y="1000"/>
  <rect fill="#87BA55" height="100" width="100" x="600" y="1000"/>
  <rect fill="#828E4D" height="100" width="100" x="700" y="1000"/>
  <rect fill="#828E4D" height="100" width="100" x="800" y="1000"/>
  <rect fill="#828E4D" height="100" width="100" x="900" y="1000"/>
  <rect fill="#324F5E" height="100" width="100" x="1000" y="1000"/>
  <rect fill="#1E1E23" height="100" width="100" x="1100" y="1000"/>
  <rect fill="#1E1E23" height="100" width="100" x="400" y="1100"/>
  <rect fill="#324F5E" height="100" width="100" x="500" y="1100"/>
  <rect fill="#324F5E" height="100" width="100" x="600" y="1100"/>
  <rect fill="#324F5E" height="100" width="100" x="700" y="1100"/>
  <rect fill="#324F5E" height="100" width="100" x="800" y="1100"/>
  <rect fill="#324F5E" height="100" width="100" x="900" y="1100"/>
  <rect fill="#324F5E" height="100" width="100" x="1000" y="1100"/>
  <rect fill="#1E1E23" height="100" width="100" x="1100" y="1100"/>
  <rect fill="#1E1E23" height="100" width="100" x="400" y="1200"/>
  <rect fill="#324F5E" height="100" width="100" x="500" y="1200"/>
  <rect fill="#952525" height="100" width="100" x="600" y="1200"/>
  <rect fill="#324F5E" height="100" width="100" x="700" y="1200"/>
  <rect fill="#324F5E" height="100" width="100" x="800" y="1200"/>
  <rect fill="#259539" height="100" width="100" x="900" y="1200"/>
  <rect fill="#324F5E" height="100" width="100" x="1000" y="1200"/>
  <rect fill="#1E1E23" height="100" width="100" x="1100" y="1200"/>
  <rect fill="#1E1E23" height="100" width="100" x="400" y="1300"/>
  <rect fill="#324F5E" height="100" width="100" x="500" y="1300"/>
  <rect fill="#324F5E" height="100" width="100" x="600" y="1300"/>
  <rect fill="#324F5E" height="100" width="100" x="700" y="1300"/>
  <rect fill="#324F5E" height="100" width="100" x="800" y="1300"/>
  <rect fill="#324F5E" height="100" width="100" x="900" y="1300"/>
  <rect fill="#324F5E" height="100" width="100" x="1000" y="1300"/>
  <rect fill="#1E1E23" height="100" width="100" x="1100" y="1300"/>
  <rect fill="#1E1E23" height="100" width="100" x="400" y="1400"/>
  <rect fill="#1E1E23" height="100" width="100" x="500" y="1400"/>
  <rect fill="#1E1E23" height="100" width="100" x="600" y="1400"/>
  <rect fill="#1E1E23" height="100" width="100" x="700" y="1400"/>
  <rect fill="#1E1E23" height="100" width="100" x="800" y="1400"/>
  <rect fill="#1E1E23" height="100" width="100" x="900" y="1400"/>
  <rect fill="#1E1E23" height="100" width="100" x="1000" y="1400"/>
  <rect fill="#1E1E23" height="100" width="100" x="1100" y="1400"/>
</svg>